<?xml version="1.0" encoding="UTF-8" standalone="no"?><!-- Generator: Gravit.io --><svg xmlns="http://www.w3.org/2000/svg" xmlns:xlink="http://www.w3.org/1999/xlink" style="isolation:isolate" viewBox="751 512 402.774 70.777" width="402.774pt" height="70.777pt"><path d=" M 1058.345 525.491 L 1064.491 525.491 L 1053.33 564.271 L 1046.408 564.271 L 1035.742 532.696 L 1025.005 564.271 L 1018.012 564.271 L 1006.993 525.491 L 1013.492 525.491 L 1021.756 558.125 L 1032.493 525.491 L 1039.203 525.491 L 1050.01 558.055 L 1058.345 525.491 Z  M 1106.166 542.727 L 1106.166 542.727 Q 1106.166 544.775 1105.883 546.258 L 1105.883 546.258 L 1074.874 546.258 L 1074.874 546.258 Q 1075.086 552.898 1078.653 556.218 L 1078.653 556.218 L 1078.653 556.218 Q 1082.22 559.538 1087.377 559.538 L 1087.377 559.538 L 1087.377 559.538 Q 1092.039 559.538 1095.182 557.172 L 1095.182 557.172 L 1095.182 557.172 Q 1098.325 554.805 1099.032 550.85 L 1099.032 550.85 L 1105.883 550.85 L 1105.883 550.85 Q 1105.177 554.876 1102.74 558.055 L 1102.74 558.055 L 1102.74 558.055 Q 1100.303 561.233 1096.418 562.999 L 1096.418 562.999 L 1096.418 562.999 Q 1092.533 564.765 1087.659 564.765 L 1087.659 564.765 L 1087.659 564.765 Q 1082.079 564.765 1077.77 562.363 L 1077.77 562.363 L 1077.77 562.363 Q 1073.461 559.962 1071.024 555.476 L 1071.024 555.476 L 1071.024 555.476 Q 1068.588 550.991 1068.588 544.916 L 1068.588 544.916 L 1068.588 544.916 Q 1068.588 538.842 1071.024 534.321 L 1071.024 534.321 L 1071.024 534.321 Q 1073.461 529.8 1077.77 527.399 L 1077.77 527.399 L 1077.77 527.399 Q 1082.079 524.997 1087.659 524.997 L 1087.659 524.997 L 1087.659 524.997 Q 1093.31 524.997 1097.513 527.399 L 1097.513 527.399 L 1097.513 527.399 Q 1101.716 529.8 1103.941 533.826 L 1103.941 533.826 L 1103.941 533.826 Q 1106.166 537.853 1106.166 542.727 L 1106.166 542.727 Z  M 1099.667 543.15 L 1099.667 543.15 Q 1099.879 538.842 1098.255 535.946 L 1098.255 535.946 L 1098.255 535.946 Q 1096.63 533.049 1093.805 531.637 L 1093.805 531.637 L 1093.805 531.637 Q 1090.979 530.224 1087.659 530.224 L 1087.659 530.224 L 1087.659 530.224 Q 1082.362 530.224 1078.759 533.509 L 1078.759 533.509 L 1078.759 533.509 Q 1075.157 536.793 1074.874 543.15 L 1074.874 543.15 L 1099.667 543.15 Z  M 1135.974 524.997 L 1135.974 524.997 Q 1141.131 524.997 1145.157 527.399 L 1145.157 527.399 L 1145.157 527.399 Q 1149.183 529.8 1151.479 534.321 L 1151.479 534.321 L 1151.479 534.321 Q 1153.774 538.842 1153.774 544.916 L 1153.774 544.916 L 1153.774 544.916 Q 1153.774 550.991 1151.479 555.476 L 1151.479 555.476 L 1151.479 555.476 Q 1149.183 559.962 1145.157 562.363 L 1145.157 562.363 L 1145.157 562.363 Q 1141.131 564.765 1135.974 564.765 L 1135.974 564.765 L 1135.974 564.765 Q 1130.323 564.765 1126.403 561.904 L 1126.403 561.904 L 1126.403 561.904 Q 1122.483 559.043 1120.999 554.382 L 1120.999 554.382 L 1120.999 564.271 L 1114.572 564.271 L 1114.572 512 L 1120.999 512 L 1120.999 535.38 L 1120.999 535.38 Q 1122.483 530.719 1126.403 527.858 L 1126.403 527.858 L 1126.403 527.858 Q 1130.323 524.997 1135.974 524.997 L 1135.974 524.997 Z  M 1134.138 530.719 L 1134.138 530.719 Q 1130.394 530.719 1127.357 532.449 L 1127.357 532.449 L 1127.357 532.449 Q 1124.319 534.18 1122.624 537.429 L 1122.624 537.429 L 1122.624 537.429 Q 1120.929 540.678 1120.929 544.916 L 1120.929 544.916 L 1120.929 544.916 Q 1120.929 549.154 1122.624 552.368 L 1122.624 552.368 L 1122.624 552.368 Q 1124.319 555.582 1127.357 557.348 L 1127.357 557.348 L 1127.357 557.348 Q 1130.394 559.114 1134.138 559.114 L 1134.138 559.114 L 1134.138 559.114 Q 1140.142 559.114 1143.709 555.335 L 1143.709 555.335 L 1143.709 555.335 Q 1147.276 551.556 1147.276 544.916 L 1147.276 544.916 L 1147.276 544.916 Q 1147.276 538.277 1143.709 534.498 L 1143.709 534.498 L 1143.709 534.498 Q 1140.142 530.719 1134.138 530.719 L 1134.138 530.719 Z " fill="rgb(125,125,125)"/><path d=" M 768.942 524.856 L 768.942 524.856 Q 776.5 524.856 780.49 528.352 L 780.49 528.352 L 780.49 528.352 Q 784.481 531.849 784.623 537.711 L 784.623 537.711 L 776.641 537.711 L 776.641 537.711 Q 776.711 534.533 774.557 532.59 L 774.557 532.59 L 774.557 532.59 Q 772.403 530.648 768.235 530.648 L 768.235 530.648 L 768.235 530.648 Q 765.057 530.648 763.149 532.096 L 763.149 532.096 L 763.149 532.096 Q 761.242 533.544 761.242 536.016 L 761.242 536.016 L 761.242 536.016 Q 761.242 537.641 762.372 538.736 L 762.372 538.736 L 762.372 538.736 Q 763.503 539.831 765.162 540.466 L 765.162 540.466 L 765.162 540.466 Q 766.822 541.102 769.93 542.02 L 769.93 542.02 L 769.93 542.02 Q 773.886 543.08 776.394 544.175 L 776.394 544.175 L 776.394 544.175 Q 778.901 545.269 780.667 547.353 L 780.667 547.353 L 780.667 547.353 Q 782.433 549.437 782.433 552.757 L 782.433 552.757 L 782.433 552.757 Q 782.433 554.099 782.15 555.441 L 782.15 555.441 L 782.15 555.441 Q 781.373 559.609 777.559 562.187 L 777.559 562.187 L 777.559 562.187 Q 773.745 564.765 767.458 564.765 L 767.458 564.765 L 767.458 564.765 Q 759.9 564.765 755.485 561.374 L 755.485 561.374 L 755.485 561.374 Q 751.071 557.984 751 551.909 L 751 551.909 L 758.982 551.909 L 758.982 551.909 Q 758.699 555.088 761.136 557.066 L 761.136 557.066 L 761.136 557.066 Q 763.573 559.043 768.165 559.043 L 768.165 559.043 L 768.165 559.043 Q 771.343 559.043 773.074 557.489 L 773.074 557.489 L 773.074 557.489 Q 774.804 555.936 774.804 553.534 L 774.804 553.534 L 774.804 553.534 Q 774.804 551.697 773.603 550.532 L 773.603 550.532 L 773.603 550.532 Q 772.403 549.366 770.672 548.695 L 770.672 548.695 L 770.672 548.695 Q 768.942 548.024 765.834 547.106 L 765.834 547.106 L 765.834 547.106 Q 761.949 545.976 759.582 544.987 L 759.582 544.987 L 759.582 544.987 Q 757.216 543.998 755.556 542.02 L 755.556 542.02 L 755.556 542.02 Q 753.896 540.042 753.896 536.864 L 753.896 536.864 L 753.896 536.864 Q 753.896 535.734 754.108 534.392 L 754.108 534.392 L 754.108 534.392 Q 754.885 530.083 758.77 527.469 L 758.77 527.469 L 758.77 527.469 Q 762.655 524.856 768.942 524.856 L 768.942 524.856 Z  M 817.115 524.856 L 817.115 524.856 Q 823.755 524.856 827.675 528.882 L 827.675 528.882 L 827.675 528.882 Q 831.596 532.908 831.596 539.972 L 831.596 539.972 L 831.596 539.972 Q 831.596 542.232 831.172 544.775 L 831.172 544.775 L 831.172 544.775 Q 830.042 550.92 827.004 555.441 L 827.004 555.441 L 827.004 555.441 Q 823.967 559.962 819.552 562.363 L 819.552 562.363 L 819.552 562.363 Q 815.137 564.765 810.052 564.765 L 810.052 564.765 L 810.052 564.765 Q 804.754 564.765 801.469 562.151 L 801.469 562.151 L 801.469 562.151 Q 798.185 559.538 797.478 555.229 L 797.478 555.229 L 792.605 582.777 L 784.481 582.777 L 794.653 525.35 L 802.705 525.35 L 801.081 534.392 L 801.081 534.392 Q 803.412 530.083 807.615 527.469 L 807.615 527.469 L 807.615 527.469 Q 811.817 524.856 817.115 524.856 L 817.115 524.856 Z  M 808.851 557.631 L 808.851 557.631 Q 814.219 557.631 818.033 554.205 L 818.033 554.205 L 818.033 554.205 Q 821.848 550.779 822.907 544.775 L 822.907 544.775 L 822.907 544.775 Q 823.19 543.292 823.19 541.667 L 823.19 541.667 L 823.19 541.667 Q 823.19 537.076 820.576 534.498 L 820.576 534.498 L 820.576 534.498 Q 817.963 531.919 813.371 531.919 L 813.371 531.919 L 813.371 531.919 Q 808.144 531.919 804.224 535.451 L 804.224 535.451 L 804.224 535.451 Q 800.304 538.983 799.244 544.775 L 799.244 544.775 L 799.244 544.775 Q 798.962 546.188 798.962 547.742 L 798.962 547.742 L 798.962 547.742 Q 798.962 552.333 801.646 554.982 L 801.646 554.982 L 801.646 554.982 Q 804.33 557.631 808.851 557.631 L 808.851 557.631 Z  M 859.779 524.856 L 859.779 524.856 Q 864.794 524.856 868.397 526.692 L 868.397 526.692 L 868.397 526.692 Q 871.999 528.529 873.871 531.813 L 873.871 531.813 L 873.871 531.813 Q 875.743 535.098 875.743 539.265 L 875.743 539.265 L 875.743 539.265 Q 875.743 540.819 875.39 542.939 L 875.39 542.939 L 875.39 542.939 Q 874.966 544.987 874.471 546.4 L 874.471 546.4 L 844.522 546.4 L 844.522 546.4 Q 844.381 547.318 844.381 548.872 L 844.381 548.872 L 844.381 548.872 Q 844.381 553.605 846.888 555.9 L 846.888 555.9 L 846.888 555.9 Q 849.396 558.196 853.493 558.196 L 853.493 558.196 L 853.493 558.196 Q 857.519 558.196 860.662 556.147 L 860.662 556.147 L 860.662 556.147 Q 863.805 554.099 865.077 550.708 L 865.077 550.708 L 873.694 550.708 L 873.694 550.708 Q 871.434 556.995 865.854 560.88 L 865.854 560.88 L 865.854 560.88 Q 860.274 564.765 852.716 564.765 L 852.716 564.765 L 852.716 564.765 Q 845.37 564.765 840.99 560.597 L 840.99 560.597 L 840.99 560.597 Q 836.611 556.43 836.611 549.154 L 836.611 549.154 L 836.611 549.154 Q 836.611 546.823 837.034 544.422 L 837.034 544.422 L 837.034 544.422 Q 838.094 538.418 841.343 534.003 L 841.343 534.003 L 841.343 534.003 Q 844.593 529.588 849.36 527.222 L 849.36 527.222 L 849.36 527.222 Q 854.128 524.856 859.779 524.856 L 859.779 524.856 Z  M 867.337 542.727 L 867.337 542.727 Q 867.69 541.314 867.69 539.619 L 867.69 539.619 L 867.69 539.619 Q 867.69 535.522 865.112 533.403 L 865.112 533.403 L 865.112 533.403 Q 862.534 531.284 858.649 531.284 L 858.649 531.284 L 858.649 531.284 Q 853.916 531.284 850.208 534.18 L 850.208 534.18 L 850.208 534.18 Q 846.5 537.076 845.299 542.727 L 845.299 542.727 L 867.337 542.727 Z  M 903.785 524.856 L 903.785 524.856 Q 908.801 524.856 912.403 526.692 L 912.403 526.692 L 912.403 526.692 Q 916.005 528.529 917.877 531.813 L 917.877 531.813 L 917.877 531.813 Q 919.749 535.098 919.749 539.265 L 919.749 539.265 L 919.749 539.265 Q 919.749 540.819 919.396 542.939 L 919.396 542.939 L 919.396 542.939 Q 918.972 544.987 918.478 546.4 L 918.478 546.4 L 888.528 546.4 L 888.528 546.4 Q 888.387 547.318 888.387 548.872 L 888.387 548.872 L 888.387 548.872 Q 888.387 553.605 890.894 555.9 L 890.894 555.9 L 890.894 555.9 Q 893.402 558.196 897.499 558.196 L 897.499 558.196 L 897.499 558.196 Q 901.525 558.196 904.668 556.147 L 904.668 556.147 L 904.668 556.147 Q 907.812 554.099 909.083 550.708 L 909.083 550.708 L 917.701 550.708 L 917.701 550.708 Q 915.44 556.995 909.86 560.88 L 909.86 560.88 L 909.86 560.88 Q 904.28 564.765 896.722 564.765 L 896.722 564.765 L 896.722 564.765 Q 889.376 564.765 884.996 560.597 L 884.996 560.597 L 884.996 560.597 Q 880.617 556.43 880.617 549.154 L 880.617 549.154 L 880.617 549.154 Q 880.617 546.823 881.041 544.422 L 881.041 544.422 L 881.041 544.422 Q 882.1 538.418 885.349 534.003 L 885.349 534.003 L 885.349 534.003 Q 888.599 529.588 893.367 527.222 L 893.367 527.222 L 893.367 527.222 Q 898.135 524.856 903.785 524.856 L 903.785 524.856 Z  M 911.343 542.727 L 911.343 542.727 Q 911.697 541.314 911.697 539.619 L 911.697 539.619 L 911.697 539.619 Q 911.697 535.522 909.118 533.403 L 909.118 533.403 L 909.118 533.403 Q 906.54 531.284 902.655 531.284 L 902.655 531.284 L 902.655 531.284 Q 897.923 531.284 894.214 534.18 L 894.214 534.18 L 894.214 534.18 Q 890.506 537.076 889.305 542.727 L 889.305 542.727 L 911.343 542.727 Z  M 962.06 512 L 970.183 512 L 960.93 564.271 L 952.807 564.271 L 954.431 555.229 L 954.431 555.229 Q 952.171 559.538 947.968 562.151 L 947.968 562.151 L 947.968 562.151 Q 943.765 564.765 938.468 564.765 L 938.468 564.765 L 938.468 564.765 Q 931.898 564.765 927.908 560.597 L 927.908 560.597 L 927.908 560.597 Q 923.917 556.43 923.917 549.154 L 923.917 549.154 L 923.917 549.154 Q 923.917 547.247 924.411 544.139 L 924.411 544.139 L 924.411 544.139 Q 925.471 538.206 928.473 533.862 L 928.473 533.862 L 928.473 533.862 Q 931.475 529.518 935.819 527.187 L 935.819 527.187 L 935.819 527.187 Q 940.163 524.856 945.178 524.856 L 945.178 524.856 L 945.178 524.856 Q 950.617 524.856 953.972 527.469 L 953.972 527.469 L 953.972 527.469 Q 957.327 530.083 958.104 534.392 L 958.104 534.392 L 962.06 512 Z  M 946.732 531.919 L 946.732 531.919 Q 941.364 531.919 937.514 535.38 L 937.514 535.38 L 937.514 535.38 Q 933.664 538.842 932.605 544.775 L 932.605 544.775 L 932.605 544.775 Q 932.322 546.258 932.322 547.954 L 932.322 547.954 L 932.322 547.954 Q 932.322 552.545 934.936 555.088 L 934.936 555.088 L 934.936 555.088 Q 937.549 557.631 942.141 557.631 L 942.141 557.631 L 942.141 557.631 Q 947.368 557.631 951.323 554.134 L 951.323 554.134 L 951.323 554.134 Q 955.279 550.638 956.338 544.775 L 956.338 544.775 L 956.338 544.775 Q 956.621 542.797 956.621 541.95 L 956.621 541.95 L 956.621 541.95 Q 956.621 537.288 953.937 534.603 L 953.937 534.603 L 953.937 534.603 Q 951.253 531.919 946.732 531.919 L 946.732 531.919 Z  M 972.655 525.35 L 981.697 525.35 L 988.337 553.958 L 1004.159 525.35 L 1013.13 525.35 L 979.436 582.777 L 970.466 582.777 L 982.332 563.352 L 972.655 525.35 Z " fill="rgb(63,81,181)"/></svg>